<svg width="1105" height="1024" viewBox="0 0 1105 1024" fill="none" xmlns="http://www.w3.org/2000/svg">
<rect x="100" width="1005" height="808" rx="141" fill="url(#paint0_linear)"/>
<g filter="url(#filter0_d)">
<path d="M0 298C0 215.157 67.1573 148 150 148H722C804.843 148 872 215.157 872 298V808H0V298Z" fill="url(#paint1_linear)"/>
</g>
<path d="M872 874C872 956.843 804.843 1024 722 1024L150 1024C67.1573 1024 5.87108e-06 956.843 1.31134e-05 874L1.88833e-05 808L872 808L872 874Z" fill="url(#paint2_linear)" fill-opacity="0.5"/>
<path d="M774.25 266.268L764.733 256.75L727 294.483L689.268 256.75L679.75 266.268L717.483 304L679.75 341.733L689.268 351.25L727 313.518L764.733 351.25L774.25 341.733L736.518 304L774.25 266.268Z" fill="#CCEAD8"/>
<defs>
<filter id="filter0_d" x="0" y="144" width="976" height="668" filterUnits="userSpaceOnUse" color-interpolation-filters="sRGB">
<feFlood flood-opacity="0" result="BackgroundImageFix"/>
<feColorMatrix in="SourceAlpha" type="matrix" values="0 0 0 0 0 0 0 0 0 0 0 0 0 0 0 0 0 0 127 0"/>
<feOffset dx="100"/>
<feGaussianBlur stdDeviation="2"/>
<feColorMatrix type="matrix" values="0 0 0 0 0 0 0 0 0 0 0 0 0 0 0 0 0 0 0.25 0"/>
<feBlend mode="normal" in2="BackgroundImageFix" result="effect1_dropShadow"/>
<feBlend mode="normal" in="SourceGraphic" in2="effect1_dropShadow" result="shape"/>
</filter>
<linearGradient id="paint0_linear" x1="1009.64" y1="920.305" x2="621.171" y2="-272.681" gradientUnits="userSpaceOnUse">
<stop stop-color="#455264"/>
<stop offset="0.333333" stop-color="#455264"/>
<stop offset="1" stop-color="#798392"/>
</linearGradient>
<linearGradient id="paint1_linear" x1="789.26" y1="899.735" x2="487.242" y2="-85.4763" gradientUnits="userSpaceOnUse">
<stop stop-color="#2B8670"/>
<stop offset="0.541667" stop-color="#6BB68A"/>
<stop offset="1" stop-color="#93D4AE"/>
</linearGradient>
<linearGradient id="paint2_linear" x1="82.7398" y1="777.978" x2="117.775" y2="1127.2" gradientUnits="userSpaceOnUse">
<stop stop-color="#2B8670"/>
<stop offset="0.541667" stop-color="#6BB68A"/>
<stop offset="1" stop-color="#93D4AE"/>
</linearGradient>
</defs>
</svg>
